<svg width="14" height="14" fill="none" xmlns="http://www.w3.org/2000/svg"><path d="M6.556.751a1.86 1.86 0 0 0-2.28-.573 1.83 1.83 0 0 0-.952 1.047c-.168.464-.14.966.072 1.412a.376.376 0 0 1-.342.538.38.38 0 0 1-.344-.216 2.58 2.58 0 0 1-.25-1.031 2.042 2.042 0 0 0-1.79 2.02c0 .226.038.443.107.646.371-.183.79-.288 1.232-.288.21 0 .38.17.38.378s-.17.377-.38.377H1.99c.167.257.299.606.286 1.066a.379.379 0 0 1-.38.367h-.011a.379.379 0 0 1-.37-.388c.013-.465-.208-.732-.354-.858A1.994 1.994 0 0 0 0 7.054c0 1.098.9 1.992 2.008 1.992.21 0 .38.17.38.377 0 .209-.17.378-.38.378a2.78 2.78 0 0 1-.818-.122c-.226.26-.364.6-.364.97 0 .824.672 1.49 1.501 1.49l.05-.001c.013-.18.045-.363.1-.543a.38.38 0 0 1 .728.219 1.69 1.69 0 0 0 1.136 2.109c.444.133.943.093 1.37-.11.432-.206.729-.55.856-.968l-.01-.003v-3.06a1.808 1.808 0 0 1-.833-.311c-.264.185-.624.352-1.026.352-.262 0-.536-.071-.809-.254a.375.375 0 0 1-.1-.524.383.383 0 0 1 .528-.102c.32.214.648.109.87-.019a1.95 1.95 0 0 1-.292-.707.378.378 0 0 1 .302-.442.368.368 0 0 1 .434.3c.092.478.45.846.925.942V4.292c-.285-.167-.548-.266-.854-.29-.191.155-.355.531-.31.863a.376.376 0 0 1-.373.429.379.379 0 0 1-.375-.327A1.744 1.744 0 0 1 4.72 4.2c-.074.038-.146.08-.216.128a.382.382 0 0 1-.53-.094.373.373 0 0 1 .084-.525 2.614 2.614 0 0 1 2.497-.265V.751zm6.254 8.927a2.78 2.78 0 0 1-.818.123.379.379 0 0 1-.38-.378c0-.208.17-.377.38-.377A2.002 2.002 0 0 0 14 7.054c0-.798-.475-1.487-1.159-1.805a1.056 1.056 0 0 0-.355.857.379.379 0 0 1-.37.388h-.01a.379.379 0 0 1-.38-.367 1.81 1.81 0 0 1 .284-1.065l-.018-.001a.379.379 0 0 1-.38-.377c0-.209.17-.378.38-.378.443 0 .86.104 1.232.288.069-.203.107-.42.107-.647a2.042 2.042 0 0 0-1.792-2.02 2.58 2.58 0 0 1-.25 1.032.38.38 0 0 1-.688-.323c.212-.446.237-.947.069-1.412A1.888 1.888 0 0 0 9.684.177C8.878-.2 7.887.041 7.364.75v2.127a1.2 1.2 0 0 0 .603-.24.4.4 0 0 1 .548.065c.129.165.079.402-.087.53-.3.232-.683.373-1.063.405v2.167c.475.095.89.346 1.178.717.51-.15 1.287-.165 1.792.495a.374.374 0 1 1-.594.456c-.164-.215-.39-.306-.691-.277a1.294 1.294 0 0 0-.135.02c.065.245.082.503.046.761a.38.38 0 0 1-.429.323.378.378 0 0 1-.325-.426c.044-.316-.066-.63-.26-.884a1.18 1.18 0 0 0-.583-.403v3.943c.19.178.452.292.714.324.32.04.648-.047.901-.243a.39.39 0 0 1 .541.066.375.375 0 0 1-.062.53 1.958 1.958 0 0 1-1.202.411 2.199 2.199 0 0 1-.892-.184v1.41s.029 0 .029.002c.128.418.45.762.882.968a1.95 1.95 0 0 0 1.377.11 1.693 1.693 0 0 0 1.14-2.11.382.382 0 0 1 .73-.219c.055.181.088.363.1.543l.05.002c.83 0 1.502-.667 1.502-1.49 0-.37-.138-.71-.364-.97z" fill="#fff"/></svg>