<svg width="15" height="14" fill="none" xmlns="http://www.w3.org/2000/svg"><path d="M10.91 12.732c0 .301-.326.546-.728.546H.727c-.401 0-.727-.245-.727-.546V5.637c0-.302.326-.546.727-.546h9.455c.402 0 .727.244.727.546v7.095zM2.727 4.815c1.004 0 1.818-.862 1.818-1.926S3.731.963 2.727.963.91 1.825.91 2.889s.814 1.926 1.818 1.926zm5 .001C8.982 4.816 10 3.738 10 2.408 10 1.078 8.982 0 7.727 0 6.472 0 5.454 1.078 5.454 2.408c0 1.33 1.018 2.408 2.273 2.408zM15 13.518s-.06.482-.485.482c-.424 0-3.151-2.696-3.151-3.05V7.418c0-.354 2.666-3.05 3.151-3.05.485 0 .485.482.485.482v8.668z" fill="#fff"/></svg>