<svg fill="none" xmlns="http://www.w3.org/2000/svg"><g style="mix-blend-mode:screen"><path d="M36.692 43.462l-4.955-2.664c-.076-.043-.163-.086-.239-.14l4.955 2.664c.087.043.163.097.239.14z" fill="#26313F"/><path d="M5.194 2.804L.239.14C.163.097.076.054 0 0l4.955 2.664c.086.043.163.097.239.14z" transform="translate(31.498 40.658)" fill="url(#paint0_linear)"/><path d="M31.933 44.579l-4.954-2.664c.967-.419 2.075-1.44 3.042-2.481l4.954 2.664c-.967 1.03-2.075 2.051-3.042 2.48z" fill="#26313F"/><path d="M4.955 5.145L0 2.481C.967 2.062 2.075 1.042 3.042 0l4.955 2.664C7.03 3.695 5.922 4.716 4.955 5.145z" transform="translate(26.979 39.434)" fill="url(#paint1_linear)"/><path d="M31.249 44.622l-4.955-2.664a.557.557 0 0 0 .359.054c.097-.011.206-.043.326-.097l4.954 2.664c-.12.054-.228.086-.326.097a.543.543 0 0 1-.358-.054z" fill="#26313F"/><path d="M4.955 2.707L0 .043a.557.557 0 0 0 .359.054C.456.086.565.054.685 0l4.954 2.664c-.12.054-.228.086-.326.097a.543.543 0 0 1-.358-.054z" transform="translate(26.294 41.915)" fill="url(#paint2_linear)"/><path d="M23.762 64l-4.954-2.664c.652-3.051 1.586-6.832 1.76-10.151l4.955 2.664c-.174 3.319-1.109 7.1-1.76 10.15z" fill="#26313F"/><path d="M4.955 12.815L0 10.151C.652 7.101 1.586 3.319 1.76 0l4.955 2.664c-.174 3.32-1.109 7.1-1.76 10.151z" transform="translate(18.808 51.185)" fill="url(#paint3_linear)"/><path d="M34.964 42.096l-4.954-2.664c-1.108-1.16-1.847-2.706-2.075-4.511l4.954 2.664c.228 1.794.978 3.351 2.075 4.511z" fill="#26313F"/><path d="M7.03 7.176L2.075 4.512C.967 3.352.228 1.805 0 0l4.955 2.664c.228 1.794.977 3.351 2.075 4.512z" transform="translate(27.935 34.92)" fill="url(#paint4_linear)"/><path d="M27.87 43.224l-4.944-2.663a.55.55 0 0 0 .37.085c.02 0 .053-.01.075-.021l4.955 2.664c-.022.01-.044.01-.076.021a.748.748 0 0 1-.38-.086z" fill="#26313F"/><path d="M4.944 2.664L0 0a.55.55 0 0 0 .37.086c.02 0 .053-.01.074-.022L5.4 2.728c-.022.011-.043.011-.076.022a.748.748 0 0 1-.38-.086z" transform="translate(22.926 40.56)" fill="url(#paint5_linear)"/><path d="M28.315 43.29l-4.955-2.664c.772-.258 1.25-2.353 1.51-4.211l4.955 2.664c-.26 1.858-.728 3.953-1.51 4.21z" fill="#26313F"/><path d="M4.955 6.875L0 4.21C.771 3.953 1.25 1.858 1.51 0l4.955 2.664c-.26 1.858-.728 3.953-1.51 4.21z" transform="translate(23.36 36.415)" fill="url(#paint6_linear)"/><path d="M44.635 7.348l4.954 2.664a7.191 7.191 0 0 0-3.596-.838L41.038 6.51a7.219 7.219 0 0 1 3.597.838z" fill="#26313F"/><path d="M3.596.84l4.955 2.664a7.191 7.191 0 0 0-3.596-.838L0 .002A7.219 7.219 0 0 1 3.596.84z" transform="translate(41.038 6.508)" fill="url(#paint7_linear)"/><path d="M25.522 53.86l-4.954-2.664c.087-1.74-.283-8.142-.304-8.486l4.954 2.664c.022.333.402 6.746.304 8.486z" fill="#26313F"/><path d="M5.259 11.15L.304 8.486C.391 6.746.022.344 0 0l4.955 2.664c.021.333.402 6.746.304 8.486z" transform="translate(20.264 42.71)" fill="url(#paint8_linear)"/><path d="M25.175 42.806l-4.955-2.664c.218-.033.315-.086.315-.086l4.955 2.664c-.011 0-.109.053-.315.086z" fill="#26313F"/><path d="M4.955 2.75L0 .086C.217.054.315 0 .315 0L5.27 2.664c-.011 0-.109.054-.315.086z" transform="translate(20.22 40.056)" fill="url(#paint9_linear)"/><path d="M22.491 42.043l-4.955-2.664c1.424.773 2.271.816 2.684.763l4.955 2.664c-.413.053-1.26.01-2.684-.763z" fill="#26313F"/><path d="M4.955 2.664L0 0c1.423.773 2.27.816 2.684.763l4.954 2.664c-.413.053-1.26.01-2.683-.763z" transform="translate(17.537 39.379)" fill="url(#paint10_linear)"/><path d="M25.48 42.72l-4.955-2.664-1.63-3.449 4.954 2.664 1.63 3.448z" fill="#26313F"/><path d="M6.584 6.112L1.63 3.448 0 0l4.955 2.664 1.63 3.448z" transform="translate(18.895 36.607)" fill="url(#paint11_linear)"/><path d="M21.6 44.418l-4.954-2.664a25.055 25.055 0 0 1-1.359-.795l4.955 2.664c.413.258.88.537 1.358.795z" fill="#26313F"/><path d="M6.313 3.459L1.358.795A25.055 25.055 0 0 1 0 0l4.955 2.664c.412.258.88.537 1.358.795z" transform="translate(15.287 40.959)" fill="url(#paint12_linear)"/><path d="M37.659 2.524l4.954 2.664c-1.292-.698-2.814-.988-4.465-.763-1.576.215-3.042.903-4.303 1.88l-4.954-2.653c1.26-.978 2.727-1.665 4.302-1.88 1.652-.236 3.173.064 4.466.752z" fill="#26313F"/><path d="M8.768.832l4.955 2.664c-1.293-.699-2.814-.989-4.466-.763-1.575.215-3.042.902-4.302 1.88L0 1.959C1.26.982 2.727.295 4.303.08c1.651-.236 3.172.065 4.465.753z" transform="translate(28.89 1.692)" fill="url(#paint13_linear)"/><path d="M11.92 44.395l-4.955-2.664c-2.336-1.257-3.89-3.835-3.88-7.014 0-.161.012-.322.022-.484l4.955 2.664c-.01.162-.022.323-.022.484-.01 3.18 1.543 5.747 3.88 7.014z" fill="#26313F"/><path d="M8.834 10.162L3.879 7.498C1.543 6.24-.011 3.663 0 .483 0 .323.01.161.022 0l4.954 2.664c-.01.161-.021.322-.021.483-.011 3.18 1.542 5.747 3.879 7.015z" transform="translate(3.086 34.233)" fill="url(#paint14_linear)"/><path d="M26.055.838l4.955 2.664c-1.293-.698-2.825-.988-4.466-.763-4.172.58-7.628 4.318-8.269 8.658l-4.954-2.664c.652-4.35 4.107-8.078 8.268-8.658 1.64-.225 3.173.065 4.466.763z" fill="#26313F"/><path d="M12.734.838l4.955 2.664c-1.293-.698-2.825-.988-4.466-.763-4.172.58-7.627 4.318-8.268 8.658L0 8.733C.652 4.383 4.107.655 8.268.075 9.91-.15 11.441.14 12.734.838z" transform="translate(13.32)" fill="url(#paint15_linear)"/><path d="M8.062 36.888l-4.955-2.664C1.206 32.86 0 30.518 0 27.704c.01-3.18 1.575-6.188 3.922-8.089l4.955 2.664c-2.347 1.912-3.912 4.91-3.922 8.089-.011 2.814 1.206 5.156 3.107 6.52z" fill="#26313F"/><path d="M8.062 17.273l-4.955-2.664C1.206 13.245 0 10.903 0 8.089.01 4.909 1.575 1.9 3.922 0l4.955 2.664C6.53 4.576 4.965 7.573 4.955 10.753c-.011 2.814 1.206 5.156 3.107 6.52z" transform="translate(0 19.615)" fill="url(#paint16_linear)"/><path d="M52.903 20.28C54.207 21.678 55 23.633 55 25.9c-.01 3.845-2.293 7.433-5.487 9.141-.445 4.555-4.01 8.572-8.344 9.174-1.75.247-3.38-.086-4.716-.881l-3.499 4.34c-.032.204-.717 4.157-.662 6.348.065 2.191 1.456 8.271 1.532 8.583L23.752 64c.651-3.05 1.586-6.832 1.76-10.15.087-1.741-.283-8.143-.305-8.487a1.51 1.51 0 0 1-.315.086c-1.184.161-3.216-.924-4.66-1.837-1.153.795-2.456 1.343-3.847 1.536-4.629.645-8.366-2.836-8.356-7.777 0-.161.011-.322.022-.483-1.901-1.375-3.118-3.706-3.107-6.52.01-3.18 1.575-6.188 3.922-8.09a7.741 7.741 0 0 1-.032-.708c.01-4.941 3.77-9.453 8.387-10.097a6.746 6.746 0 0 1 1.033-.065c.652-4.35 4.107-8.078 8.268-8.658 3.151-.44 5.878 1.031 7.302 3.577 1.26-.977 2.727-1.665 4.302-1.88 3.608-.504 6.66 1.504 7.834 4.748 4.216-.118 7.497 3.223 7.486 7.842.022 1.106-.184 2.202-.543 3.244zm-20.97 24.3c.967-.419 2.075-1.44 3.042-2.481-1.108-1.16-1.847-2.707-2.075-4.512a8.97 8.97 0 0 1-1.184.741c-.533 2.439-1.608 6.563-.12 6.349.109-.011.218-.043.337-.097zm-3.618-1.289c.771-.258 1.25-2.353 1.51-4.21a6.784 6.784 0 0 1-1.032.214 7.294 7.294 0 0 1-3.792-.451c1 2.073 2.39 4.576 3.249 4.458.021 0 .043 0 .065-.011zm-3.14-.483c.217-.033.315-.086.315-.086l-1.64-3.449c-.435.946-1 1.827-1.674 2.6 1.619.935 2.553.999 2.999.935z" fill="#26313F"/><path d="M47.96 17.608c1.303 1.396 2.096 3.351 2.096 5.618-.01 3.846-2.292 7.433-5.487 9.141-.445 4.555-4.009 8.572-8.344 9.174-1.75.247-3.38-.086-4.716-.881L28.011 45c-.033.204-.717 4.157-.663 6.348.065 2.191 1.456 8.271 1.532 8.583l-10.072 1.396c.652-3.05 1.586-6.831 1.76-10.15.087-1.74-.283-8.143-.304-8.487a1.51 1.51 0 0 1-.315.086c-1.185.161-3.216-.924-4.662-1.837-1.151.795-2.455 1.343-3.846 1.536-4.628.645-8.366-2.835-8.355-7.777 0-.16.01-.322.022-.483C1.206 32.84-.011 30.509 0 27.695c.01-3.18 1.576-6.188 3.922-8.089a7.741 7.741 0 0 1-.032-.709C3.9 13.956 7.66 9.444 12.278 8.8a6.746 6.746 0 0 1 1.032-.065c.652-4.35 4.107-8.078 8.268-8.658 3.151-.44 5.879 1.032 7.302 3.577 1.26-.977 2.727-1.665 4.303-1.88 3.607-.504 6.66 1.504 7.834 4.749 4.215-.119 7.496 3.222 7.486 7.841.021 1.106-.185 2.202-.544 3.244zM26.99 41.906c.966-.419 2.075-1.44 3.042-2.481-1.109-1.16-1.847-2.707-2.076-4.512-.38.28-.771.527-1.184.741-.532 2.439-1.608 6.564-.12 6.349a1.06 1.06 0 0 0 .337-.097zm-3.619-1.289c.772-.258 1.25-2.352 1.51-4.21a6.784 6.784 0 0 1-1.032.214 7.294 7.294 0 0 1-3.792-.451c1 2.073 2.39 4.576 3.25 4.458.02 0 .043 0 .064-.01zm-3.14-.483c.217-.032.315-.086.315-.086l-1.64-3.448c-.435.945-1 1.826-1.674 2.6 1.62.934 2.554.998 3 .934z" transform="translate(4.944 2.673)" fill="url(#paint17_linear)"/><path d="M8.877 22.279l-4.955-2.664a7.737 7.737 0 0 1-.032-.71c.01-4.94 3.77-9.452 8.388-10.096a6.745 6.745 0 0 1 1.032-.065l4.955 2.664c-.337 0-.685.022-1.033.065-4.628.644-8.377 5.166-8.388 10.097 0 .247.011.473.033.709z" fill="#26313F"/><path d="M4.987 13.535L.033 10.87A7.737 7.737 0 0 1 0 10.16C.01 5.222 3.77.71 8.388.065A6.745 6.745 0 0 1 9.42 0l4.955 2.664c-.337 0-.685.021-1.032.064-4.629.645-8.378 5.167-8.388 10.098 0 .247.01.472.032.709z" transform="translate(3.89 8.744)" fill="url(#paint18_linear)"/></g><defs><linearGradient id="paint0_linear" x2="1" gradientUnits="userSpaceOnUse" gradientTransform="matrix(0 2.80362 -5.1936 0 5.194 0)"><stop stop-color="#fff"/><stop offset="1" stop-color="#fff" stop-opacity="0"/></linearGradient><linearGradient id="paint1_linear" x2="1" gradientUnits="userSpaceOnUse" gradientTransform="matrix(0 5.14533 -7.99684 0 7.997 0)"><stop stop-color="#fff"/><stop offset="1" stop-color="#fff" stop-opacity="0"/></linearGradient><linearGradient id="paint2_linear" x2="1" gradientUnits="userSpaceOnUse" gradientTransform="matrix(0 2.76888 -5.63908 0 5.64 0)"><stop stop-color="#fff"/><stop offset="1" stop-color="#fff" stop-opacity="0"/></linearGradient><linearGradient id="paint3_linear" x2="1" gradientUnits="userSpaceOnUse" gradientTransform="matrix(0 12.815 -6.71474 0 6.715 0)"><stop stop-color="#fff"/><stop offset="1" stop-color="#fff" stop-opacity="0"/></linearGradient><linearGradient id="paint4_linear" x2="1" gradientUnits="userSpaceOnUse" gradientTransform="matrix(0 7.17554 -7.02983 0 7.03 0)"><stop stop-color="#fff"/><stop offset="1" stop-color="#fff" stop-opacity="0"/></linearGradient><linearGradient id="paint5_linear" x2="1" gradientUnits="userSpaceOnUse" gradientTransform="matrix(0 2.75194 -5.40004 0 5.4 0)"><stop stop-color="#fff"/><stop offset="1" stop-color="#fff" stop-opacity="0"/></linearGradient><linearGradient id="paint6_linear" x2="1" gradientUnits="userSpaceOnUse" gradientTransform="matrix(0 6.87477 -6.46484 0 6.465 0)"><stop stop-color="#fff"/><stop offset="1" stop-color="#fff" stop-opacity="0"/></linearGradient><linearGradient id="paint7_linear" x2="1" gradientUnits="userSpaceOnUse" gradientTransform="matrix(0 3.50418 -8.55097 0 8.551 0)"><stop stop-color="#fff"/><stop offset="1" stop-color="#fff" stop-opacity="0"/></linearGradient><linearGradient id="paint8_linear" x2="1" gradientUnits="userSpaceOnUse" gradientTransform="matrix(0 11.15 -5.27484 0 5.275 0)"><stop stop-color="#fff"/><stop offset="1" stop-color="#fff" stop-opacity="0"/></linearGradient><linearGradient id="paint9_linear" x2="1" gradientUnits="userSpaceOnUse" gradientTransform="matrix(0 2.74991 -5.26966 0 5.27 0)"><stop stop-color="#fff"/><stop offset="1" stop-color="#fff" stop-opacity="0"/></linearGradient><linearGradient id="paint10_linear" x2="1" gradientUnits="userSpaceOnUse" gradientTransform="matrix(0 3.44256 -7.63829 0 7.638 0)"><stop stop-color="#fff"/><stop offset="1" stop-color="#fff" stop-opacity="0"/></linearGradient><linearGradient id="paint11_linear" x2="1" gradientUnits="userSpaceOnUse" gradientTransform="matrix(0 6.1121 -6.58435 0 6.584 0)"><stop stop-color="#fff"/><stop offset="1" stop-color="#fff" stop-opacity="0"/></linearGradient><linearGradient id="paint12_linear" x2="1" gradientUnits="userSpaceOnUse" gradientTransform="matrix(0 3.45887 -6.31272 0 6.313 0)"><stop stop-color="#fff"/><stop offset="1" stop-color="#fff" stop-opacity="0"/></linearGradient><linearGradient id="paint13_linear" x2="1" gradientUnits="userSpaceOnUse" gradientTransform="matrix(0 4.61272 -13.7228 0 13.723 0)"><stop stop-color="#fff"/><stop offset="1" stop-color="#fff" stop-opacity="0"/></linearGradient><linearGradient id="paint14_linear" x2="1" gradientUnits="userSpaceOnUse" gradientTransform="matrix(0 10.1618 -8.83352 0 8.834 0)"><stop stop-color="#fff"/><stop offset="1" stop-color="#fff" stop-opacity="0"/></linearGradient><linearGradient id="paint15_linear" x2="1" gradientUnits="userSpaceOnUse" gradientTransform="matrix(0 11.3971 -17.6887 0 17.689 0)"><stop stop-color="#fff"/><stop offset="1" stop-color="#fff" stop-opacity="0"/></linearGradient><linearGradient id="paint16_linear" x2="1" gradientUnits="userSpaceOnUse" gradientTransform="matrix(0 17.2729 -8.87693 0 8.877 0)"><stop stop-color="#fff"/><stop offset="1" stop-color="#fff" stop-opacity="0"/></linearGradient><linearGradient id="paint17_linear" x2="1" gradientUnits="userSpaceOnUse" gradientTransform="matrix(0 61.3273 -50.0564 0 50.056 0)"><stop stop-color="#fff"/><stop offset="1" stop-color="#fff" stop-opacity="0"/></linearGradient><linearGradient id="paint18_linear" x2="1" gradientUnits="userSpaceOnUse" gradientTransform="matrix(0 13.5347 -14.3748 0 14.375 0)"><stop stop-color="#fff"/><stop offset="1" stop-color="#fff" stop-opacity="0"/></linearGradient></defs></svg>