<svg width="34" height="64" fill="none" xmlns="http://www.w3.org/2000/svg"><g style="mix-blend-mode:screen"><g opacity=".3"><path d="M17 64c9.389 0 17-2.406 17-5.374 0-2.968-7.611-5.374-17-5.374S0 55.658 0 58.626C0 61.594 7.611 64 17 64z" fill="#2B303E"/><path d="M17 10.748c9.389 0 17-2.406 17-5.374C34 2.406 26.389 0 17 0S0 2.406 0 5.374c0 2.968 7.611 5.374 17 5.374z" fill="url(#paint0_linear)" transform="translate(0 53.252)"/></g><g opacity=".8"><path d="M16.844 61.592c6.202 0 11.23-1.425 11.23-3.182 0-1.758-5.028-3.182-11.23-3.182-6.202 0-11.23 1.424-11.23 3.182 0 1.757 5.028 3.182 11.23 3.182z" fill="#2B303E"/><path d="M11.23 6.364c6.201 0 11.229-1.425 11.229-3.182S17.43 0 11.229 0C5.028 0 0 1.425 0 3.182s5.028 3.182 11.23 3.182z" fill="url(#paint1_linear)" transform="translate(5.615 55.228)"/></g></g><g style="mix-blend-mode:screen"><path d="M14.555 52.067l-3.332-1.807c-1.635-.903-2.786-2.59-2.968-4.758l3.332 1.807c.242 2.168 1.332 3.915 2.968 4.758z" fill="#26313F"/><path d="M7.269 17.467L3.937 15.66c-1.635-.903-2.786-2.59-2.968-4.758l3.332 1.807c.242 2.168 1.332 3.915 2.968 4.758z" transform="translate(7.286 34.6)" fill="url(#paint2_linear)"/><path d="M11.587 47.308l-3.271-1.807L7.286 34.6l3.331 1.807.97 10.901z" fill="#26313F"/><path d="M4.3 12.708l-3.27-1.807L0 0l3.332 1.807.969 10.901z" transform="translate(7.286 34.6)" fill="url(#paint3_linear)"/><path d="M21.753 13.552l3.331 1.807c-1.15-.603-2.483-.904-3.937-.663l-3.331-1.807a6.116 6.116 0 0 1 3.937.663z" fill="#26313F"/><path d="M18.838.746l3.332 1.807c-1.15-.603-2.483-.904-3.937-.663L14.9.083a6.116 6.116 0 0 1 3.938.663z" transform="translate(2.914 12.806)" fill="url(#paint4_linear)"/><path d="M8.427 36.017L5.095 34.21a7.353 7.353 0 0 1-.848-.602c-.788-.783-1.333-1.988-1.333-3.373v-.542L6.246 31.5v.542c0 1.385.545 2.59 1.393 3.373.242.24.485.421.788.602z" fill="#26313F"/><path d="M5.512 23.21l-3.331-1.806a7.353 7.353 0 0 1-.848-.602C.545 20.019 0 18.814 0 17.429v-.542l3.332 1.807v.542c0 1.385.545 2.59 1.393 3.372.242.241.484.422.787.603z" transform="translate(2.914 12.806)" fill="url(#paint5_linear)"/><path d="M14.242 15.66l-3.332-1.807 6.906-.964 3.331 1.807-6.905.964z" fill="#26313F"/><path d="M11.327 2.853L7.996 1.046 14.9.083l3.332 1.807-6.906.963z" transform="translate(2.914 12.806)" fill="url(#paint6_linear)"/><path d="M6.246 31.5l-3.332-1.807.727-7.77 3.332 1.807-.727 7.77z" fill="#26313F"/><path d="M3.332 18.694L0 16.887l.727-7.77 3.331 1.807-.726 7.77z" transform="translate(2.914 12.806)" fill="url(#paint7_linear)"/><path d="M6.973 23.73L3.64 21.923c.364-4.035 3.514-7.528 7.27-8.07l3.33 1.807c-3.755.542-6.905 4.035-7.268 8.07z" fill="#26313F"/><path d="M4.058 10.924L.727 9.117C1.09 5.082 4.24 1.59 7.996 1.047l3.331 1.807c-3.755.542-6.905 4.035-7.269 8.07z" transform="translate(2.914 12.806)" fill="url(#paint8_linear)"/><path d="M21.147 14.696c3.756-.542 6.906 2.108 7.269 6.083l.727 7.529v.482c0 1.385-.545 2.77-1.393 3.794a5.418 5.418 0 0 1-2.666 1.807l-.969 11.203c-.363 3.613-3.089 6.685-6.42 7.107-3.332.481-6.119-1.868-6.421-5.36l-1.03-10.902a3.67 3.67 0 0 1-2.605-1.084c-.848-.783-1.393-1.988-1.393-3.373v-.542l.727-7.77c.363-4.035 3.513-7.528 7.269-8.07l6.905-.904z" fill="#26313F"/><path d="M14.901.07c3.756-.542 6.906 2.108 7.27 6.083l.726 7.529v.482c0 1.385-.545 2.77-1.393 3.794a5.418 5.418 0 0 1-2.666 1.807l-.969 11.203c-.363 3.613-3.089 6.685-6.42 7.107-3.332.481-6.118-1.867-6.421-5.36l-1.03-10.902a3.67 3.67 0 0 1-2.605-1.084C.545 19.946 0 18.74 0 17.356v-.542l.727-7.77C1.09 5.01 4.24 1.516 7.996.974L14.9.07z" transform="translate(6.246 14.626)" fill="url(#paint9_linear)"/><path d="M17.755 1.867c2.968-.422 5.391 1.807 5.391 5.06 0 3.191-2.423 6.142-5.391 6.564-2.968.422-5.391-1.867-5.391-5.06 0-3.252 2.423-6.203 5.39-6.564z" fill="#26313F"/><path d="M5.391.051c2.968-.421 5.391 1.807 5.391 5.06 0 3.192-2.423 6.143-5.39 6.564C2.422 12.097 0 9.808 0 6.616 0 3.364 2.423.413 5.391.051z" transform="translate(12.364 1.816)" fill="url(#paint10_linear)"/><g opacity=".7"><path d="M17.33.543l3.332 1.806c-.848-.421-1.817-.662-2.907-.481L14.423.06c1.09-.181 2.06.06 2.908.482z" fill="#26313F"/><path d="M8.299.543l3.331 1.806c-.848-.421-1.817-.662-2.907-.481L5.39.06C6.481-.12 7.451.12 8.3.543z" fill="url(#paint11_linear)" transform="translate(9.032)"/><path d="M14.847 12.95l-3.331-1.807C10 10.299 9.032 8.672 9.032 6.625c0-3.192 2.423-6.143 5.391-6.564l3.332 1.807c-2.968.421-5.391 3.312-5.391 6.564 0 1.988.969 3.674 2.483 4.517z" fill="#26313F"/><path d="M5.815 12.95l-3.331-1.807C.969 10.299 0 8.672 0 6.625 0 3.433 2.423.482 5.391.061l3.332 1.807c-2.968.421-5.391 3.312-5.391 6.564 0 1.988.969 3.674 2.483 4.517z" fill="url(#paint12_linear)" transform="translate(9.032)"/></g></g><defs><linearGradient id="paint0_linear" x2="1" gradientUnits="userSpaceOnUse" gradientTransform="matrix(0 10.7481 -34 0 34 0)"><stop stop-color="#fff"/><stop offset="1" stop-color="#fff" stop-opacity="0"/></linearGradient><linearGradient id="paint1_linear" x2="1" gradientUnits="userSpaceOnUse" gradientTransform="matrix(0 6.36414 -22.4587 0 22.459 0)"><stop stop-color="#fff"/><stop offset="1" stop-color="#fff" stop-opacity="0"/></linearGradient><linearGradient id="paint2_linear" x2="1" gradientUnits="userSpaceOnUse" gradientTransform="matrix(0 12.7083 -4.30076 0 4.3 0)"><stop stop-color="#fff"/><stop offset="1" stop-color="#fff" stop-opacity="0"/></linearGradient><linearGradient id="paint3_linear" x2="1" gradientUnits="userSpaceOnUse" gradientTransform="matrix(0 12.7083 -4.30076 0 4.3 0)"><stop stop-color="#fff"/><stop offset="1" stop-color="#fff" stop-opacity="0"/></linearGradient><linearGradient id="paint4_linear" x2="1" gradientUnits="userSpaceOnUse" gradientTransform="matrix(0 9.87752 -10.6005 0 11.327 1.047)"><stop stop-color="#fff"/><stop offset="1" stop-color="#fff" stop-opacity="0"/></linearGradient><linearGradient id="paint5_linear" x2="1" gradientUnits="userSpaceOnUse" gradientTransform="matrix(0 9.87752 -10.6005 0 11.327 1.047)"><stop stop-color="#fff"/><stop offset="1" stop-color="#fff" stop-opacity="0"/></linearGradient><linearGradient id="paint6_linear" x2="1" gradientUnits="userSpaceOnUse" gradientTransform="matrix(0 9.87752 -10.6005 0 11.327 1.047)"><stop stop-color="#fff"/><stop offset="1" stop-color="#fff" stop-opacity="0"/></linearGradient><linearGradient id="paint7_linear" x2="1" gradientUnits="userSpaceOnUse" gradientTransform="matrix(0 9.87752 -10.6005 0 11.327 1.047)"><stop stop-color="#fff"/><stop offset="1" stop-color="#fff" stop-opacity="0"/></linearGradient><linearGradient id="paint8_linear" x2="1" gradientUnits="userSpaceOnUse" gradientTransform="matrix(0 9.87752 -10.6005 0 11.327 1.047)"><stop stop-color="#fff"/><stop offset="1" stop-color="#fff" stop-opacity="0"/></linearGradient><linearGradient id="paint9_linear" x2="1" gradientUnits="userSpaceOnUse" gradientTransform="matrix(0 38.1372 -22.897 0 22.897 0)"><stop stop-color="#fff"/><stop offset="1" stop-color="#fff" stop-opacity="0"/></linearGradient><linearGradient id="paint10_linear" x2="1" gradientUnits="userSpaceOnUse" gradientTransform="matrix(0 11.7254 -10.7822 0 10.782 0)"><stop stop-color="#fff"/><stop offset="1" stop-color="#fff" stop-opacity="0"/></linearGradient><linearGradient id="paint11_linear" x2="1" gradientUnits="userSpaceOnUse" gradientTransform="matrix(0 12.889 -8.72267 0 8.723 .06)"><stop stop-color="#fff"/><stop offset="1" stop-color="#fff" stop-opacity="0"/></linearGradient><linearGradient id="paint12_linear" x2="1" gradientUnits="userSpaceOnUse" gradientTransform="matrix(0 12.889 -8.72267 0 8.723 .06)"><stop stop-color="#fff"/><stop offset="1" stop-color="#fff" stop-opacity="0"/></linearGradient></defs></svg>