<svg width="131" height="126" fill="none" xmlns="http://www.w3.org/2000/svg"><path d="M65.202 47.389L0 9.859V0l65.202 37.53v9.859z" transform="translate(0 78.611)" fill="url(#paint0_linear)"/><path d="M65.202 75.06L0 37.53 65.202 0l65.191 37.53-65.19 37.53z" transform="translate(0 41.081)" fill="url(#paint1_linear)"/><path d="M0 37.53v9.859l65.191-37.53V0L0 37.53z" transform="translate(65.202 78.611)" fill="url(#paint2_linear)"/><path d="M65.202 47.389L0 9.847V0l65.202 37.53v9.859z" transform="translate(0 58.076)" fill="url(#paint3_linear)"/><path d="M65.202 75.071L0 37.541 65.202 0l65.191 37.541-65.19 37.53z" transform="translate(0 20.535)" fill="url(#paint4_linear)"/><path d="M0 37.53v9.859L65.191 9.847V0L0 37.53z" transform="translate(65.202 58.076)" fill="url(#paint5_linear)"/><path d="M65.202 47.389L0 9.859V0l65.202 37.53v9.859z" transform="translate(0 37.53)" fill="url(#paint6_linear)"/><path d="M65.202 75.06L0 37.53 65.202 0l65.191 37.53-65.19 37.53z" fill="url(#paint7_linear)"/><path d="M0 37.53v9.859l65.191-37.53V0L0 37.53z" transform="translate(65.202 37.53)" fill="url(#paint8_linear)"/><defs><linearGradient id="paint0_linear" x2="1" gradientUnits="userSpaceOnUse" gradientTransform="matrix(0 47.3886 -65.2022 0 65.202 0)"><stop stop-color="#fff"/><stop offset="1" stop-color="#fff" stop-opacity="0"/></linearGradient><linearGradient id="paint1_linear" x2="1" gradientUnits="userSpaceOnUse" gradientTransform="matrix(0 75.06 -130.393 0 130.393 0)"><stop stop-color="#fff"/><stop offset="1" stop-color="#fff" stop-opacity="0"/></linearGradient><linearGradient id="paint2_linear" x2="1" gradientUnits="userSpaceOnUse" gradientTransform="matrix(0 47.3886 -65.191 0 65.191 0)"><stop stop-color="#fff"/><stop offset="1" stop-color="#fff" stop-opacity="0"/></linearGradient><linearGradient id="paint3_linear" x2="1" gradientUnits="userSpaceOnUse" gradientTransform="matrix(0 47.3886 -65.2022 0 65.202 0)"><stop stop-color="#fff"/><stop offset="1" stop-color="#fff" stop-opacity="0"/></linearGradient><linearGradient id="paint4_linear" x2="1" gradientUnits="userSpaceOnUse" gradientTransform="matrix(0 75.0712 -130.393 0 130.393 0)"><stop stop-color="#fff"/><stop offset="1" stop-color="#fff" stop-opacity="0"/></linearGradient><linearGradient id="paint5_linear" x2="1" gradientUnits="userSpaceOnUse" gradientTransform="matrix(0 47.3886 -65.191 0 65.191 0)"><stop stop-color="#fff"/><stop offset="1" stop-color="#fff" stop-opacity="0"/></linearGradient><linearGradient id="paint6_linear" x2="1" gradientUnits="userSpaceOnUse" gradientTransform="matrix(0 47.3886 -65.2022 0 65.202 0)"><stop stop-color="#fff"/><stop offset="1" stop-color="#fff" stop-opacity="0"/></linearGradient><linearGradient id="paint7_linear" x2="1" gradientUnits="userSpaceOnUse" gradientTransform="matrix(0 75.06 -130.393 0 130.393 0)"><stop stop-color="#fff"/><stop offset="1" stop-color="#fff" stop-opacity="0"/></linearGradient><linearGradient id="paint8_linear" x2="1" gradientUnits="userSpaceOnUse" gradientTransform="matrix(0 47.3886 -65.191 0 65.191 0)"><stop stop-color="#fff"/><stop offset="1" stop-color="#fff" stop-opacity="0"/></linearGradient></defs></svg>