<svg width="67" height="64" fill="none" xmlns="http://www.w3.org/2000/svg"><path d="M33.503 24.07L0 5.008V0l33.503 19.063v5.008z" transform="translate(0 39.929)" fill="url(#paint0_linear)"/><path d="M33.503 38.126L0 19.063 33.503 0 67 19.063 33.503 38.126z" transform="translate(0 20.867)" fill="url(#paint1_linear)"/><path d="M0 19.063v5.008L33.497 5.008V0L0 19.063z" transform="translate(33.503 39.929)" fill="url(#paint2_linear)"/><path d="M33.503 24.07L0 5.002V0l33.503 19.063v5.008z" transform="translate(0 29.5)" fill="url(#paint3_linear)"/><path d="M33.503 38.132L0 19.069 33.503 0 67 19.069 33.503 38.132z" transform="translate(0 10.431)" fill="url(#paint4_linear)"/><path d="M0 19.063v5.008L33.497 5V0L0 19.063z" transform="translate(33.503 29.5)" fill="url(#paint5_linear)"/><path d="M33.503 24.07L0 5.008V0l33.503 19.063v5.008z" transform="translate(0 19.063)" fill="url(#paint6_linear)"/><path d="M33.503 38.126L0 19.063 33.503 0 67 19.063 33.503 38.126z" fill="url(#paint7_linear)"/><path d="M0 19.063v5.008L33.497 5.008V0L0 19.063z" transform="translate(33.503 19.063)" fill="url(#paint8_linear)"/><defs><linearGradient id="paint0_linear" x2="1" gradientUnits="userSpaceOnUse" gradientTransform="matrix(0 24.0705 -33.5029 0 33.503 0)"><stop stop-color="#fff"/><stop offset="1" stop-color="#fff" stop-opacity="0"/></linearGradient><linearGradient id="paint1_linear" x2="1" gradientUnits="userSpaceOnUse" gradientTransform="matrix(0 38.1258 -67 0 67 0)"><stop stop-color="#fff"/><stop offset="1" stop-color="#fff" stop-opacity="0"/></linearGradient><linearGradient id="paint2_linear" x2="1" gradientUnits="userSpaceOnUse" gradientTransform="matrix(0 24.0705 -33.4971 0 33.497 0)"><stop stop-color="#fff"/><stop offset="1" stop-color="#fff" stop-opacity="0"/></linearGradient><linearGradient id="paint3_linear" x2="1" gradientUnits="userSpaceOnUse" gradientTransform="matrix(0 24.0705 -33.5029 0 33.503 0)"><stop stop-color="#fff"/><stop offset="1" stop-color="#fff" stop-opacity="0"/></linearGradient><linearGradient id="paint4_linear" x2="1" gradientUnits="userSpaceOnUse" gradientTransform="matrix(0 38.1315 -67 0 67 0)"><stop stop-color="#fff"/><stop offset="1" stop-color="#fff" stop-opacity="0"/></linearGradient><linearGradient id="paint5_linear" x2="1" gradientUnits="userSpaceOnUse" gradientTransform="matrix(0 24.0705 -33.4971 0 33.497 0)"><stop stop-color="#fff"/><stop offset="1" stop-color="#fff" stop-opacity="0"/></linearGradient><linearGradient id="paint6_linear" x2="1" gradientUnits="userSpaceOnUse" gradientTransform="matrix(0 24.0705 -33.5029 0 33.503 0)"><stop stop-color="#fff"/><stop offset="1" stop-color="#fff" stop-opacity="0"/></linearGradient><linearGradient id="paint7_linear" x2="1" gradientUnits="userSpaceOnUse" gradientTransform="matrix(0 38.1258 -67 0 67 0)"><stop stop-color="#fff"/><stop offset="1" stop-color="#fff" stop-opacity="0"/></linearGradient><linearGradient id="paint8_linear" x2="1" gradientUnits="userSpaceOnUse" gradientTransform="matrix(0 24.0705 -33.4971 0 33.497 0)"><stop stop-color="#fff"/><stop offset="1" stop-color="#fff" stop-opacity="0"/></linearGradient></defs></svg>