<svg width="51" height="64" fill="none" xmlns="http://www.w3.org/2000/svg"><path d="M27.358 64l-3.868-2.113-2.714-2.565 3.875 2.113L27.358 64z" fill="#2B303E"/><path d="M6.582 4.677L2.714 2.565 0 0l3.875 2.113 2.707 2.564z" transform="translate(20.776 59.322)" fill="url(#paint0_linear)"/><path d="M38.526 31.345l-3.875-2.12 1.778-.248 3.867 2.113-1.77.255z" fill="#2B303E"/><path d="M3.875 2.368L0 .248 1.778 0l3.868 2.113-1.77.255z" transform="translate(34.65 28.977)" fill="url(#paint1_linear)"/><path d="M31.19 32.38l-3.869-2.12 1.365-.19 3.867 2.113-1.364.196z" fill="#2B303E"/><path d="M3.868 2.31L0 .19 1.364 0l3.868 2.113-1.364.197z" transform="translate(27.321 30.07)" fill="url(#paint2_linear)"/><path d="M31.19 34.864l-3.876-2.113.007-2.492 3.868 2.12v2.485z" fill="#2B303E"/><path d="M3.875 4.605L0 2.492.007 0l3.868 2.12v2.485z" transform="translate(27.314 30.259)" fill="url(#paint3_linear)"/><path d="M32.554 32.183l-3.868-2.113-1.321-3.934 3.868 2.12 1.32 3.927z" fill="#2B303E"/><path d="M5.189 6.047L1.32 3.934 0 0l3.868 2.12 1.32 3.927z" transform="translate(27.365 26.136)" fill="url(#paint4_linear)"/><path d="M24.651 61.435l-3.875-2.113L37.48 38.908l3.868 2.112L24.65 61.435z" fill="#2B303E"/><path d="M3.875 55.241L0 53.128l16.705-20.414 3.868 2.112L3.875 55.241z" transform="translate(20.776 6.194)" fill="url(#paint5_linear)"/><path d="M34.128 6.194l3.868 2.113c5.522 3.016 9.187 9.18 9.172 16.78-.014 5.9-2.235 11.555-5.82 15.933l-3.867-2.112c3.577-4.38 5.805-10.033 5.82-15.935.014-7.599-3.65-13.763-9.173-16.779z" fill="#2B303E"/><path d="M13.352 0l3.868 2.113c5.522 3.016 9.187 9.18 9.172 16.779-.014 5.901-2.235 11.556-5.82 15.934l-3.867-2.112c3.577-4.38 5.805-10.033 5.82-15.935C22.539 9.18 18.875 3.016 13.352 0z" transform="translate(20.776 6.194)" fill="url(#paint6_linear)"/><path d="M27.43 26.033l-3.875-2.113 5.102-10.36 3.875 2.113-5.102 10.36z" fill="#2B303E"/><path d="M3.875 12.473L0 10.36 5.101 0l3.875 2.113-5.1 10.36z" transform="translate(23.555 13.56)" fill="url(#paint7_linear)"/><path d="M27.409 35.585l-3.868-2.113-3.795-6.258 3.875 2.113 3.788 6.258z" fill="#2B303E"/><path d="M7.663 8.371L3.795 6.258 0 0l3.875 2.113L7.663 8.37z" transform="translate(19.745 27.214)" fill="url(#paint8_linear)"/><path d="M22.285 33.633L18.41 31.52l1.365-.19 3.875 2.113-1.365.19z" fill="#2B303E"/><path d="M3.875 2.302L0 .19 1.364 0 5.24 2.113l-1.364.19z" transform="translate(18.41 31.33)" fill="url(#paint9_linear)"/><path d="M14.542 34.726l-3.875-2.113 1.771-.248 3.868 2.113-1.764.248z" fill="#2B303E"/><path d="M3.875 2.36L0 .249 1.77 0l3.868 2.113-1.763.248z" transform="translate(10.667 32.365)" fill="url(#paint10_linear)"/><path d="M14.535 37.21l-3.868-2.113v-2.484l3.875 2.112-.007 2.485z" fill="#2B303E"/><path d="M3.868 4.597L0 2.484V0l3.875 2.113-.007 2.484z" transform="translate(10.667 32.612)" fill="url(#paint11_linear)"/><path d="M32.532 15.674l5.994 15.671 1.77-.255-.007 2.485-9.1 1.29V32.38l1.365-.197-1.321-3.927-3.825 7.33-3.787-6.259-1.336 4.306 1.365-.19-.008 2.485-9.107 1.282.007-2.484 1.764-.248 6.066-17.37 5.058 8.926 5.102-10.36z" fill="#2B303E"/><path d="M17.997 0l5.994 15.672 1.77-.255-.007 2.484-9.1 1.29v-2.485l1.364-.197-1.32-3.927-3.825 7.33-3.788-6.258-1.335 4.305 1.364-.189-.007 2.484L0 21.537l.007-2.485 1.764-.247 6.066-17.37 5.058 8.925L17.997 0z" transform="translate(14.535 15.674)" fill="url(#paint12_linear)"/><path d="M16.306 34.478l-3.868-2.113 6.06-17.37 3.874 2.114-6.066 17.369z" fill="#2B303E"/><path d="M3.868 19.482L0 17.37 6.06 0l3.874 2.113-6.066 17.37z" transform="translate(12.438 14.996)" fill="url(#paint13_linear)"/><path d="M36.204 2.39l3.867 2.114c-3.642-1.982-7.953-2.827-12.59-2.171L23.613.22c4.63-.656 8.948.182 12.59 2.17z" fill="#2B303E"/><path d="M36.204 2.39l3.867 2.114c-3.642-1.982-7.953-2.827-12.59-2.171L23.613.22c4.63-.656 8.948.182 12.59 2.17z" fill="url(#paint14_linear)"/><path d="M11.06 48.51l-3.87-2.113a1.644 1.644 0 0 1-.348-.255C2.613 42.15-.014 36.124 0 29.08.03 14.98 10.595 2.056 23.613.219l3.868 2.114C14.47 4.169 3.897 17.093 3.868 31.199c-.015 7.038 2.612 13.063 6.843 17.063.109.095.225.182.348.248z" fill="#2B303E"/><path d="M11.06 48.51l-3.87-2.113a1.644 1.644 0 0 1-.348-.255C2.613 42.15-.014 36.124 0 29.08.03 14.98 10.595 2.056 23.613.219l3.868 2.114C14.47 4.169 3.897 17.093 3.868 31.199c-.015 7.038 2.612 13.063 6.843 17.063.109.095.225.182.348.248z" fill="url(#paint15_linear)"/><path d="M27.481 2.333C40.5.497 51.03 10.443 51 24.548c-.014 7.045-2.663 13.799-6.93 19.023L27.358 64l-2.714-2.558L41.349 41.02c3.577-4.379 5.805-10.033 5.82-15.934.021-11.796-8.817-20.138-19.695-18.6C16.589 8.023 7.72 18.864 7.699 30.652c-.007 5.88 2.192 10.929 5.726 14.266.356.335.588.838.588 1.413 0 1.144-.864 2.2-1.923 2.346a1.62 1.62 0 0 1-1.372-.43c-4.23-4-6.857-10.018-6.843-17.063C3.897 17.095 14.47 4.17 27.481 2.333z" fill="#2B303E"/><path d="M23.606.218c13.018-1.836 23.548 8.11 23.519 22.215-.015 7.045-2.663 13.799-6.93 19.023L23.483 61.885l-2.714-2.557 16.705-20.422c3.577-4.379 5.805-10.033 5.82-15.934.021-11.796-8.817-20.138-19.695-18.6C12.714 5.908 3.846 16.75 3.824 28.537c-.007 5.88 2.192 10.929 5.726 14.266.355.335.588.837.588 1.413 0 1.144-.864 2.2-1.923 2.346a1.62 1.62 0 0 1-1.372-.43C2.613 42.133-.014 36.115 0 29.07.022 14.98 10.595 2.054 23.606.218z" transform="translate(3.875 2.115)" fill="url(#paint16_linear)"/><defs><linearGradient id="paint0_linear" x2="1" gradientUnits="userSpaceOnUse" gradientTransform="matrix(0 4.67746 -6.5818 0 6.582 0)"><stop stop-color="#fff"/><stop offset="1" stop-color="#fff" stop-opacity="0"/></linearGradient><linearGradient id="paint1_linear" x2="1" gradientUnits="userSpaceOnUse" gradientTransform="matrix(0 2.36787 -5.64569 0 5.646 0)"><stop stop-color="#fff"/><stop offset="1" stop-color="#fff" stop-opacity="0"/></linearGradient><linearGradient id="paint2_linear" x2="1" gradientUnits="userSpaceOnUse" gradientTransform="matrix(0 2.30959 -5.23206 0 5.232 0)"><stop stop-color="#fff"/><stop offset="1" stop-color="#fff" stop-opacity="0"/></linearGradient><linearGradient id="paint3_linear" x2="1" gradientUnits="userSpaceOnUse" gradientTransform="matrix(0 4.6046 -3.87506 0 3.875 0)"><stop stop-color="#fff"/><stop offset="1" stop-color="#fff" stop-opacity="0"/></linearGradient><linearGradient id="paint4_linear" x2="1" gradientUnits="userSpaceOnUse" gradientTransform="matrix(0 6.04718 -5.18852 0 5.189 0)"><stop stop-color="#fff"/><stop offset="1" stop-color="#fff" stop-opacity="0"/></linearGradient><linearGradient id="paint5_linear" x2="1" gradientUnits="userSpaceOnUse" gradientTransform="matrix(0 34.8259 -13.0403 0 26.393 0)"><stop stop-color="#fff"/><stop offset="1" stop-color="#fff" stop-opacity="0"/></linearGradient><linearGradient id="paint6_linear" x2="1" gradientUnits="userSpaceOnUse" gradientTransform="matrix(0 34.8259 -13.0403 0 26.393 0)"><stop stop-color="#fff"/><stop offset="1" stop-color="#fff" stop-opacity="0"/></linearGradient><linearGradient id="paint7_linear" x2="1" gradientUnits="userSpaceOnUse" gradientTransform="matrix(0 12.4732 -8.9765 0 8.976 0)"><stop stop-color="#fff"/><stop offset="1" stop-color="#fff" stop-opacity="0"/></linearGradient><linearGradient id="paint8_linear" x2="1" gradientUnits="userSpaceOnUse" gradientTransform="matrix(0 8.37134 -7.66305 0 7.663 0)"><stop stop-color="#fff"/><stop offset="1" stop-color="#fff" stop-opacity="0"/></linearGradient><linearGradient id="paint9_linear" x2="1" gradientUnits="userSpaceOnUse" gradientTransform="matrix(0 2.3023 -5.23932 0 5.24 0)"><stop stop-color="#fff"/><stop offset="1" stop-color="#fff" stop-opacity="0"/></linearGradient><linearGradient id="paint10_linear" x2="1" gradientUnits="userSpaceOnUse" gradientTransform="matrix(0 2.36059 -5.63843 0 5.638 0)"><stop stop-color="#fff"/><stop offset="1" stop-color="#fff" stop-opacity="0"/></linearGradient><linearGradient id="paint11_linear" x2="1" gradientUnits="userSpaceOnUse" gradientTransform="matrix(0 4.59732 -3.87506 0 3.875 0)"><stop stop-color="#fff"/><stop offset="1" stop-color="#fff" stop-opacity="0"/></linearGradient><linearGradient id="paint12_linear" x2="1" gradientUnits="userSpaceOnUse" gradientTransform="matrix(0 21.5367 -25.7612 0 25.761 0)"><stop stop-color="#fff"/><stop offset="1" stop-color="#fff" stop-opacity="0"/></linearGradient><linearGradient id="paint13_linear" x2="1" gradientUnits="userSpaceOnUse" gradientTransform="matrix(0 19.4821 -9.93439 0 9.934 0)"><stop stop-color="#fff"/><stop offset="1" stop-color="#fff" stop-opacity="0"/></linearGradient><linearGradient id="paint14_linear" x2="1" gradientUnits="userSpaceOnUse" gradientTransform="matrix(0 48.29 -27.4811 0 27.481 .22)"><stop stop-color="#fff"/><stop offset="1" stop-color="#fff" stop-opacity="0"/></linearGradient><linearGradient id="paint15_linear" x2="1" gradientUnits="userSpaceOnUse" gradientTransform="matrix(0 48.29 -27.4811 0 27.481 .22)"><stop stop-color="#fff"/><stop offset="1" stop-color="#fff" stop-opacity="0"/></linearGradient><linearGradient id="paint16_linear" x2="1" gradientUnits="userSpaceOnUse" gradientTransform="matrix(0 61.885 -47.125 0 47.125 0)"><stop stop-color="#fff"/><stop offset="1" stop-color="#fff" stop-opacity="0"/></linearGradient></defs></svg>