<svg width="60" height="64" fill="none" xmlns="http://www.w3.org/2000/svg"><g style="mix-blend-mode:screen"><path d="M34.043.784l-1.577.698v36.055l1.577-.712V.785z" fill="#2B303E"/><path d="M1.577 0L0 .698v36.055l1.577-.712V0z" transform="translate(32.466 .784)" fill="url(#paint0_linear)"/><path d="M30.756.746l1.71.736 1.577-.697L32.333 0l-1.577.746z" fill="#2B303E"/><path d="M0 .746l1.71.736L3.285.785 1.576 0 0 .746z" transform="translate(30.756)" fill="url(#paint1_linear)"/><path d="M32.466 1.483l-1.71-.737v36.007l1.71.785V1.483z" fill="#2B303E"/><path d="M1.71.736L0 0v36.007l1.71.785V.736z" transform="translate(30.756 .746)" fill="url(#paint2_linear)"/><path d="M53.087 24.832l2.335.827-.01 2.227-2.335-.846.01-2.208z" fill="#2B303E"/><path d="M.01 0l2.336.827-.011 2.227L0 2.208.01 0z" transform="translate(53.077 24.832)" fill="url(#paint3_linear)"/><path d="M55.847 25.539l-.423.12-2.335-.827.368-.146 2.39.853z" fill="#2B303E"/><path d="M2.758.853l-.423.12L0 .147.368 0l2.39.853z" transform="translate(53.089 24.686)" fill="url(#paint4_linear)"/><path d="M55.422 25.66l.423-.12-.01 2.168-.423.178.01-2.226z" fill="#2B303E"/><path d="M.01.12L.434 0l-.01 2.168L0 2.347.01.12z" transform="translate(55.412 25.54)" fill="url(#paint5_linear)"/><g opacity=".7"><path d="M59.454 44.308l-28.698-7.436.019-35.118L60 8.123l-.546 36.185z" fill="#2B303E"/><path d="M28.698 42.554L0 35.118.019 0l29.225 6.369-.546 36.185z" fill="url(#paint6_linear)" transform="translate(30.756 1.754)"/></g><g opacity=".7"><path d="M.923 15.543l18.158 12.754L19.385 64l-18-14.362-.462-34.095z" fill="#2B303E"/><path d="M0 0l18.158 12.754.303 35.703-18-14.363L0 0z" fill="url(#paint7_linear)" transform="translate(.923 15.543)"/></g><path d="M3.286 14.719l-1.577.697v36.056l1.577-.712V14.719z" fill="#2B303E"/><path d="M1.577 0L0 .698v36.055l1.577-.712V0z" transform="translate(1.71 14.719)" fill="url(#paint8_linear)"/><path d="M0 14.68l1.71.736 1.576-.697-1.676-.77L0 14.68z" fill="#2B303E"/><path d="M0 .73l1.71.737L3.285.77 1.61 0 0 .73z" transform="translate(0 13.95)" fill="url(#paint9_linear)"/><path d="M1.71 15.416L0 14.68v36.007l1.71.785V15.416z" fill="#2B303E"/><path d="M1.71.736L0 0v36.008l1.71.784V.736z" transform="translate(0 14.68)" fill="url(#paint10_linear)"/><path d="M14.322 41.305l1.55.965-.015 2.53-1.55-.986.015-2.51z" fill="#2B303E"/><path d="M.015 0l1.549.965-.015 2.53L0 2.51.015 0z" transform="translate(14.308 41.305)" fill="url(#paint11_linear)"/><path d="M16.154 42.137l-.281.133-1.55-.966.246-.161 1.585.994z" fill="#2B303E"/><path d="M1.83.995l-.28.132L0 .162.245 0 1.83.995z" transform="translate(14.324 41.143)" fill="url(#paint12_linear)"/><path d="M15.872 42.27l.281-.133-.014 2.464-.282.198.015-2.53z" fill="#2B303E"/><path d="M.015.132L.296 0 .282 2.464 0 2.662.015.132z" transform="translate(15.857 42.137)" fill="url(#paint13_linear)"/><path d="M34.043.784L1.709 15.464v.707l32.334-14.68V.784z" fill="#2B303E"/><path d="M32.333 0L0 14.68v.707L32.333.707V0z" transform="translate(1.71 .784)" fill="url(#paint14_linear)"/><path d="M0 14.68l1.71.785L34.042.785 32.333 0 0 14.68z" fill="#2B303E"/><path d="M0 14.68l1.71.785L34.042.785 32.333 0 0 14.68z" fill="url(#paint15_linear)"/><path d="M1.71 15.464L0 14.68v.755l1.71.737v-.708z" fill="#2B303E"/><path d="M1.71.785L0 0v.755l1.71.737V.785z" transform="translate(0 14.68)" fill="url(#paint16_linear)"/></g><defs><linearGradient id="paint0_linear" x2="1" gradientUnits="userSpaceOnUse" gradientTransform="matrix(0 36.7531 -1.5769 0 1.577 0)"><stop stop-color="#fff"/><stop offset="1" stop-color="#fff" stop-opacity="0"/></linearGradient><linearGradient id="paint1_linear" x2="1" gradientUnits="userSpaceOnUse" gradientTransform="matrix(0 1.4824 -3.28628 0 3.286 0)"><stop stop-color="#fff"/><stop offset="1" stop-color="#fff" stop-opacity="0"/></linearGradient><linearGradient id="paint2_linear" x2="1" gradientUnits="userSpaceOnUse" gradientTransform="matrix(0 36.7919 -1.70938 0 1.71 0)"><stop stop-color="#fff"/><stop offset="1" stop-color="#fff" stop-opacity="0"/></linearGradient><linearGradient id="paint3_linear" x2="1" gradientUnits="userSpaceOnUse" gradientTransform="matrix(0 3.05362 -2.34554 0 2.346 0)"><stop stop-color="#fff"/><stop offset="1" stop-color="#fff" stop-opacity="0"/></linearGradient><linearGradient id="paint4_linear" x2="1" gradientUnits="userSpaceOnUse" gradientTransform="matrix(0 .97374 -2.75821 0 2.758 0)"><stop stop-color="#fff"/><stop offset="1" stop-color="#fff" stop-opacity="0"/></linearGradient><linearGradient id="paint5_linear" x2="1" gradientUnits="userSpaceOnUse" gradientTransform="matrix(0 2.34692 -.43365 0 .434 0)"><stop stop-color="#fff"/><stop offset="1" stop-color="#fff" stop-opacity="0"/></linearGradient><linearGradient id="paint6_linear" x2="1" gradientUnits="userSpaceOnUse" gradientTransform="matrix(0 42.9902 -28.1528 0 28.153 0)"><stop stop-color="#fff"/><stop offset="1" stop-color="#fff" stop-opacity="0"/></linearGradient><linearGradient id="paint7_linear" x2="1" gradientUnits="userSpaceOnUse" gradientTransform="scale(18 49.8286) rotate(90 .527 .5)"><stop stop-color="#fff"/><stop offset="1" stop-color="#fff" stop-opacity="0"/></linearGradient><linearGradient id="paint8_linear" x2="1" gradientUnits="userSpaceOnUse" gradientTransform="matrix(0 36.7534 -1.5769 0 1.577 0)"><stop stop-color="#fff"/><stop offset="1" stop-color="#fff" stop-opacity="0"/></linearGradient><linearGradient id="paint9_linear" x2="1" gradientUnits="userSpaceOnUse" gradientTransform="matrix(0 1.46721 -3.28628 0 3.286 0)"><stop stop-color="#fff"/><stop offset="1" stop-color="#fff" stop-opacity="0"/></linearGradient><linearGradient id="paint10_linear" x2="1" gradientUnits="userSpaceOnUse" gradientTransform="matrix(0 36.7922 -1.70938 0 1.71 0)"><stop stop-color="#fff"/><stop offset="1" stop-color="#fff" stop-opacity="0"/></linearGradient><linearGradient id="paint11_linear" x2="1" gradientUnits="userSpaceOnUse" gradientTransform="matrix(0 3.49531 -1.56399 0 1.564 0)"><stop stop-color="#fff"/><stop offset="1" stop-color="#fff" stop-opacity="0"/></linearGradient><linearGradient id="paint12_linear" x2="1" gradientUnits="userSpaceOnUse" gradientTransform="matrix(0 1.12725 -1.83059 0 1.83 0)"><stop stop-color="#fff"/><stop offset="1" stop-color="#fff" stop-opacity="0"/></linearGradient><linearGradient id="paint13_linear" x2="1" gradientUnits="userSpaceOnUse" gradientTransform="matrix(0 2.66232 -.29612 0 .296 0)"><stop stop-color="#fff"/><stop offset="1" stop-color="#fff" stop-opacity="0"/></linearGradient><linearGradient id="paint14_linear" x2="1" gradientUnits="userSpaceOnUse" gradientTransform="matrix(0 15.3871 -32.3332 0 32.333 0)"><stop stop-color="#fff"/><stop offset="1" stop-color="#fff" stop-opacity="0"/></linearGradient><linearGradient id="paint15_linear" x2="1" gradientUnits="userSpaceOnUse" gradientTransform="matrix(0 15.4647 -34.0426 0 34.043 0)"><stop stop-color="#fff"/><stop offset="1" stop-color="#fff" stop-opacity="0"/></linearGradient><linearGradient id="paint16_linear" x2="1" gradientUnits="userSpaceOnUse" gradientTransform="matrix(0 1.4919 -1.70938 0 1.71 0)"><stop stop-color="#fff"/><stop offset="1" stop-color="#fff" stop-opacity="0"/></linearGradient></defs></svg>