<svg width="15" height="14" fill="none" xmlns="http://www.w3.org/2000/svg"><path d="M14.895.98C13.59-.307 11.14-.307 8.815.874 8.731 2 9.158 3.205 10.085 4.12a4.349 4.349 0 0 0 2.544 1.239c1.768-2.11 2.699-3.95 2.266-4.378zm-2.457.814a.517.517 0 0 1-.725 0 .502.502 0 0 1 0-.716.517.517 0 0 1 .725 0c.2.198.2.519 0 .716z" fill="#fff"/><path d="M7.972 1.358a9.99 9.99 0 0 0-.51.352l-.398-.207a.908.908 0 0 0-1.053.156L3.207 4.431a.883.883 0 0 0 .221 1.416l.636.33c-.637 1.469-.983 2.908-1.077 3.82l-2.769.94a.32.32 0 0 0-.032.593l1.207.562c.237.11.426.298.538.531l.568 1.194a.325.325 0 0 0 .6-.032l.953-2.742c1.3-.212 3.554-1.194 5.513-2.673l.219.67a.372.372 0 0 0 .612.144l.234-.233c.18-.178.291-.415.309-.667l.083-1.177c.342-.34.666-.681.973-1.02a5.222 5.222 0 0 1-2.501-1.383c-.957-.946-1.469-2.156-1.522-3.346z" fill="#fff"/></svg>