<svg width="16" height="22" fill="none" xmlns="http://www.w3.org/2000/svg"><path d="M8 9.167c0-.917-.13-.917-.444-.917-.156 0-.445 0-.445.96 0 .359.186.834.535 1.388C7.875 9.843 8 9.36 8 9.167zm-.022 3.347l-.445 1.381a9.692 9.692 0 0 1-.081.242 18.69 18.69 0 0 1 1.688-.458 12.147 12.147 0 0 1-.565-.522c-.213-.22-.412-.434-.597-.643zM3.556 17.27a.69.69 0 0 0 .444.147c.252 0 .912-.463 1.58-1.461l-.176.085c-.909.444-1.848.903-1.848 1.228z" fill="#fff"/><path d="M15.87 4.717L11.425.135A.437.437 0 0 0 11.11 0H1.778C.798 0 0 .822 0 1.833v18.334C0 21.177.798 22 1.778 22h12.444c.98 0 1.778-.822 1.778-1.833V5.042a.464.464 0 0 0-.13-.325zM12 15.583c-.398 0-1.22-.564-1.963-1.154-.929.179-2.105.464-3.051.849-.912 1.917-2.16 3.055-2.986 3.055-.641 0-1.333-.406-1.333-1.064 0-.905.937-1.363 2.356-2.056.312-.152.647-.316 1-.498.099-.05.2-.1.305-.147.128-.296.25-.617.362-.963.232-.721.44-1.36.616-1.915-.72-.965-1.084-1.795-1.084-2.48 0-1.55.725-1.877 1.334-1.877.8 0 1.333.312 1.333 1.834 0 .358-.18 1.03-.588 2.333.262.322.564.66.902 1.01.26.268.652.611 1.063.945.63-.109 1.11-.163 1.29-.163.577 0 1.777 0 1.777 1.083 0 .551-.231 1.208-1.333 1.208zm.444-11c-.49 0-.888-.411-.888-.916V1.565l2.927 3.018h-2.039z" fill="#fff"/><path d="M11.556 14.208c-.053 0-.145.008-.27.022.345.242.625.413.746.44.412-.003.412-.089.412-.295-.046-.1-.232-.167-.888-.167z" fill="#fff"/></svg>