<svg width="14" height="14" fill="none" xmlns="http://www.w3.org/2000/svg"><path d="M14 7c0-.52-.375-1.076-.838-1.24-.462-.163-.91-.564-1.041-.88-.13-.316-.097-.918.114-1.361.211-.443.084-1.101-.285-1.47-.368-.368-1.026-.495-1.47-.285-.442.211-1.043.246-1.358.115-.316-.13-.717-.58-.881-1.042C8.076.375 7.52 0 7 0c-.52 0-1.076.375-1.24.837-.165.463-.566.912-.882 1.042-.315.13-.916.096-1.36-.115-.442-.21-1.1-.083-1.469.285-.368.369-.495 1.026-.285 1.47.211.443.245 1.044.114 1.36-.131.316-.578.718-1.04.882C.374 5.924 0 6.479 0 7c0 .52.375 1.076.837 1.24.463.165.91.567 1.041.882.131.315.097.916-.114 1.36-.21.442-.083 1.1.285 1.469.369.368 1.026.495 1.47.284.443-.21 1.044-.244 1.36-.114.315.131.716.581.88 1.043.165.461.72.836 1.241.836.52 0 1.076-.375 1.24-.836.165-.462.566-.911.881-1.043.315-.13.917-.096 1.36.115.443.21 1.101.083 1.47-.285.368-.368.495-1.026.284-1.47-.21-.443-.245-1.044-.115-1.359.13-.315.58-.716 1.043-.88C13.625 8.075 14 7.52 14 7zM7 9.569a2.566 2.566 0 1 1 2.566-2.566A2.565 2.565 0 0 1 7 9.569z" fill="#fff"/></svg>