<svg width="8" height="11" fill="none" xmlns="http://www.w3.org/2000/svg"><path d="M4 4.583c0-.458-.065-.458-.222-.458-.078 0-.222 0-.222.48 0 .18.093.417.267.694.114-.377.177-.619.177-.716zm-.01 1.674l-.224.69a4.85 4.85 0 0 1-.04.121c.279-.09.57-.167.844-.229a6.072 6.072 0 0 1-.283-.26 9.187 9.187 0 0 1-.298-.322zM1.778 8.635A.341.341 0 0 0 2 8.709c.126 0 .456-.231.79-.73l-.088.042c-.454.222-.924.452-.924.614z" fill="#fff"/><path d="M7.935 2.359L5.713.067A.218.218 0 0 0 5.556 0H.889C.399 0 0 .411 0 .917v9.166c0 .506.399.917.889.917H7.11c.49 0 .889-.411.889-.917V2.521a.232.232 0 0 0-.065-.162zM6 7.792c-.199 0-.61-.283-.982-.577-.464.089-1.052.231-1.525.424-.456.959-1.08 1.528-1.493 1.528-.32 0-.667-.204-.667-.532 0-.453.47-.682 1.179-1.028.155-.076.323-.158.5-.25.049-.025.1-.05.152-.073a5.36 5.36 0 0 0 .18-.481l.309-.958c-.36-.483-.542-.898-.542-1.24 0-.775.363-.938.667-.938.4 0 .666.156.666.916 0 .18-.09.515-.294 1.167.131.16.282.33.452.505.13.134.325.306.531.473.315-.055.555-.082.645-.082.288 0 .889 0 .889.542 0 .275-.116.604-.667.604zm.222-5.5a.452.452 0 0 1-.444-.459V.783L7.24 2.291H6.222z" fill="#fff"/><path d="M5.778 7.104c-.026 0-.073.003-.135.01.173.122.312.207.373.22.206-.001.206-.044.206-.147-.023-.05-.116-.083-.444-.083z" fill="#fff"/></svg>