<svg width="16" height="16" fill="none" xmlns="http://www.w3.org/2000/svg"><path fill-rule="evenodd" clip-rule="evenodd" d="M11.585 0h-7.17A4.42 4.42 0 0 0 0 4.415v7.17A4.42 4.42 0 0 0 4.415 16h7.17A4.42 4.42 0 0 0 16 11.585v-7.17A4.42 4.42 0 0 0 11.585 0zM8 3.877A4.128 4.128 0 0 0 3.877 8 4.127 4.127 0 0 0 8 12.122 4.127 4.127 0 0 0 12.123 8 4.128 4.128 0 0 0 8 3.877zm0 6.826A2.706 2.706 0 0 1 5.297 8 2.706 2.706 0 0 1 8 5.297 2.706 2.706 0 0 1 10.703 8 2.706 2.706 0 0 1 8 10.703zm3.56-7.724a1.044 1.044 0 0 1 1.471 0 1.046 1.046 0 0 1 0 1.472 1.05 1.05 0 0 1-.736.305c-.273 0-.542-.111-.735-.305a1.05 1.05 0 0 1-.306-.736c0-.275.112-.543.306-.736z" fill="#fff"/></svg>