<svg width="11" height="8" fill="none" xmlns="http://www.w3.org/2000/svg"><path d="M10.903.572L7.567 4.001l3.336 3.429c.06-.13.097-.275.097-.43V1c0-.154-.037-.298-.097-.429zM10.033 0H.967a.93.93 0 0 0-.414.1l4.263 4.39c.377.39.99.39 1.367 0L10.447.1a.93.93 0 0 0-.414-.1zM.097.572C.037.702 0 .847 0 1.001v6c0 .154.037.298.097.429L3.433 4 .097.573z" fill="#FF001A"/><path d="M7.111 4.472l-.472.488c-.628.65-1.65.65-2.278 0l-.472-.488L.553 7.9a.93.93 0 0 0 .414.1h9.066a.93.93 0 0 0 .414-.1L7.111 4.472z" fill="#FF001A"/></svg>