<svg width="11" height="8" viewBox="0 0 11 8" fill="none" xmlns="http://www.w3.org/2000/svg">
<path d="M3.33607 1.49206e-08L-3.14712e-08 3.42862L3.33607 6.85724C3.39637 6.72686 3.43296 6.58271 3.43296 6.42879V0.428447C3.43296 0.274505 3.39637 0.130385 3.33607 1.49206e-08Z" transform="translate(7.56708 0.572266)" fill="#FF001A"/>
<path d="M9.48059 0H0.414197C0.265375 0 0.126049 0.0378467 1.44243e-08 0.100228L4.26385 4.48855C4.64086 4.87853 5.25393 4.87853 5.63094 4.48855L9.89479 0.100228C9.76874 0.0378467 9.62941 0 9.48059 0Z" transform="translate(0.552551)" fill="#FF001A"/>
<path d="M0.0968944 1.49206e-08C0.0365879 0.130385 0 0.274505 0 0.428447V6.42879C0 6.58274 0.0365879 6.72688 0.0968944 6.85724L3.43296 3.42862L0.0968944 1.49206e-08Z" transform="translate(0 0.572266)" fill="#FF001A"/>
<path d="M6.55872 -3.2554e-08L6.08665 0.488317C5.45846 1.13811 4.4363 1.13811 3.80812 0.488317L3.33607 -3.2554e-08L1.44243e-08 3.42862C0.126049 3.491 0.265375 3.52885 0.414197 3.52885H9.48059C9.62941 3.52885 9.76874 3.491 9.89479 3.42862L6.55872 -3.2554e-08Z" transform="translate(0.552551 4.47168)" fill="#FF001A"/>
</svg>
