<svg width="335" height="35" fill="none" xmlns="http://www.w3.org/2000/svg"><path d="M37.345 35V12.078L31.488 35H18.604l-5.926-22.922V35H0V0h19.293l5.856 22.922L30.937 0h19.292v35H37.345zm47.059 0l-2.066-7.069h-11.3L68.97 35H54.5L66.49 0h20.6l12.06 35H84.404zM76.689 8.235l-3.446 11.461h6.822l-3.376-11.46zM103.284 35V0h14.194v35h-14.194zm41.616 0l-8.681-22.922V35H123.54V0h19.361l8.613 22.922V0h12.678v35H144.9zm51.056-9.333c-4.754 0-7.648-.48-7.648-.48v-3.363s1.998.137 5.237.137c3.307 0 3.376 0 3.376-1.167 0-.823 0-.96-.758-1.098l-3.652-.618c-4.134-.686-4.134-2.333-4.134-4.872 0-4.53 3.376-4.873 7.303-4.873 4.48 0 7.304.48 7.304.48v3.363s-1.86-.137-4.823-.137c-3.032 0-3.17 0-3.17 1.03 0 .755 0 .823.758 1.029l3.652.618c4.134.686 4.134 2.264 4.134 4.94.07 4.668-2.136 5.01-7.579 5.01zm30.593-11.942v11.667h-6.34V13.725h-4.547V9.676h15.503v4.05h-4.616zm27.974 11.599l-.896-3.157h-5.099l-.895 3.157h-6.477l5.374-15.716h9.233l5.374 15.716h-6.614zm-3.514-11.942l-1.516 5.147h3.032l-1.516-5.147zm30.317 12.285c-7.855 0-8.406-.892-8.406-7.892 0-7.48 1.034-8.442 8.337-8.442 5.168 0 8.337.48 8.337.48v3.363s-5.719-.274-8.061-.137c-1.998.137-2.067.137-2.067 4.736 0 4.117 0 4.117 1.998 4.117 1.171 0 1.93-.068 1.93-.068V18.94h-1.93v-3.294h8.268v9.47s-3.238.55-8.406.55zm21.704-.343V9.676h14.332v3.706h-7.993v2.334h7.235v3.294h-7.235v2.676h8.13v3.706H303.03v-.068z" fill="#fff"/><path d="M331.348 3.637v27.794h-156.82V3.637h156.82zM335 0H170.876v35H335V0z" fill="#fff"/></svg>