<svg width="14" height="13" fill="none" xmlns="http://www.w3.org/2000/svg"><path d="M3.804 2.6h-.608c-.607 0-1.118.38-1.297.9C.823 3.672 0 4.561 0 5.632c0 1.07.823 1.96 1.9 2.134.178.52.689.9 1.296.9h.608c.552 0 1.114.024 1.674.07V2.529c-.56.046-1.122.07-1.674.07zM1.826 6.859c-.531-.18-.913-.661-.913-1.226s.382-1.047.913-1.226V6.86zm4.386 4.649l-.327-1.862a20.172 20.172 0 0 0-2.08-.112h-.61c-.03 0-.06-.004-.09-.005l.425 2.388c.112.628.68 1.083 1.35 1.083.834 0 1.469-.711 1.332-1.492zM13.087 0c-.504 0-.913.388-.913.867V10.4c0 .478.409.866.913.866S14 10.878 14 10.4V.867C14 .388 13.591 0 13.087 0zM6.391 2.434v6.397c2.174.268 3.278.679 4.87 1.197v-8.79c-1.58.514-2.687.927-4.87 1.196z" fill="#fff"/></svg>