<svg width="13" height="16" viewBox="0 0 13 16" fill="none" xmlns="http://www.w3.org/2000/svg">
<path d="M6.5 0C2.91019 0 -7.2726e-08 2.90799 -7.2726e-08 6.4951C-7.2726e-08 9.74917 4.04983 14.0306 5.75648 15.6904C6.17449 16.0961 6.8354 16.1046 7.26153 15.707C8.97841 14.1078 13 9.98801 13 6.49475C12.9996 2.90799 10.0898 0 6.5 0ZM6.5 8.60545C5.01578 8.60545 3.81329 7.40387 3.81329 5.92112C3.81329 4.43837 5.01578 3.23644 6.5 3.23644C7.98387 3.23644 9.186 4.43802 9.186 5.92112C9.186 7.40422 7.98387 8.60545 6.5 8.60545Z" fill="#FF001A"/>
</svg>
