<svg width="12" height="14" fill="none" xmlns="http://www.w3.org/2000/svg"><path d="M11.934 6.253l-1.289-1.747V2.39a.448.448 0 0 0 .005-.064V.468A.478.478 0 0 0 10.164 0a.478.478 0 0 0-.487.468v.17h-.003v.301H2.326V.467A.478.478 0 0 0 1.838 0a.478.478 0 0 0-.487.468v4.041L.067 6.253a.338.338 0 0 0-.066.2v2.49c0 .192.161.347.36.347h.866a.494.494 0 0 0 .052.031l3.662 1.887-3.662 1.886a.472.472 0 0 0-.205.652.515.515 0 0 0 .678.197L6 11.754l4.25 2.189a.515.515 0 0 0 .677-.197.472.472 0 0 0-.205-.652L7.06 11.208l3.662-1.887a.496.496 0 0 0 .052-.03h.866c.199 0 .36-.156.36-.348v-2.49a.337.337 0 0 0-.066-.2zm-10.581.2L.75 8.598H.72V6.564l.632-.857v.747zM6 10.663L2.766 8.996h6.468L6 10.662zm3.702-5.83H2.298V3.425h7.404V4.83zm1.577 3.765h-.032l-.602-2.143v-.75l.634.86v2.033z" fill="#fff"/></svg>