<svg width="20" height="12" fill="none" xmlns="http://www.w3.org/2000/svg"><path d="M17.213 7.63c.663.687 1.363 1.333 1.959 2.089.262.336.511.683.701 1.072.27.555.026 1.165-.443 1.198l-2.913-.002c-.752.066-1.351-.254-1.855-.8-.404-.435-.777-.898-1.165-1.349a2.82 2.82 0 0 0-.525-.494c-.397-.274-.743-.19-.97.25-.231.447-.284.943-.307 1.441-.03.728-.238.919-.928.952-1.472.074-2.87-.162-4.169-.95-1.145-.695-2.032-1.675-2.805-2.785C2.289 6.091 1.136 3.716.101 1.275-.132.725.038.429.611.419A73.28 73.28 0 0 1 3.463.417c.387.006.642.241.792.628.514 1.341 1.143 2.617 1.933 3.799.21.315.425.63.73.85.338.246.595.165.754-.234.101-.253.145-.526.168-.797.075-.932.085-1.863-.047-2.792-.08-.58-.389-.955-.935-1.065C6.58.75 6.621.64 6.756.472 6.99.18 7.211 0 7.65 0h3.293c.518.108.633.355.704.908l.003 3.878c-.006.215.1.85.464.992.291.1.483-.146.658-.342.788-.887 1.351-1.936 1.854-3.021.223-.478.415-.974.6-1.469.138-.368.355-.548.745-.54l3.17.003c.093 0 .188.001.28.018.533.096.68.34.515.893-.26.867-.766 1.59-1.26 2.316-.529.775-1.094 1.524-1.618 2.304-.482.713-.443 1.072.155 1.69z" fill="#fff"/></svg>