<svg width="16" height="16" fill="none" xmlns="http://www.w3.org/2000/svg"><path fill-rule="evenodd" clip-rule="evenodd" d="M1.104 12L0 16l4.083-1.104C5.269 15.56 6.593 16 7.973 16 12.358 16 16 12.304 16 7.944 16 3.586 12.359 0 7.972 0 3.586 0 0 3.586 0 7.944 0 9.38.386 10.76 1.104 12zm4.22-7.78l.524.028a.24.24 0 0 1 .22.166l.8 1.793c.028.083 0 .193-.054.275l-.662.746c-.056.055-.056.137-.028.22.855 1.656 2.428 2.318 2.897 2.483.082.028.165 0 .22-.055l.69-.883a.264.264 0 0 1 .331-.083l1.738.8a.28.28 0 0 1 .138.304l-.083.386a1.63 1.63 0 0 1-.717 1.048c-.497.304-1.104.442-1.876.22-2.428-.688-3.807-2.29-4.524-3.281C4.22 7.394 3.917 6.4 4.11 5.572c.11-.551.524-.966.773-1.185a.627.627 0 0 1 .441-.166z" fill="#fff"/></svg>